<?xml version="1.0" encoding="utf-8"?>
<!-- Generator: Adobe Illustrator 21.0.2, SVG Export Plug-In . SVG Version: 6.00 Build 0)  -->
<svg version="1.1" id="Layer_1" xmlns="http://www.w3.org/2000/svg" xmlns:xlink="http://www.w3.org/1999/xlink" x="0px" y="0px"
	 viewBox="0 0 320 240" style="enable-background:new 0 0 320 240;" xml:space="preserve">
<style type="text/css">
	.st0{fill:#FFFFFF;}
</style>
<g>
	<path class="st0" d="M664.6-1596.4c-5.5,0-10,4.5-10,10c0,5.5,4.5,10,10,10c5.5,0,10-4.5,10-10
		C674.6-1591.9,670.2-1596.4,664.6-1596.4z M669.9-1581.8l-0.8,0.8c-0.1,0.1-0.6,0.2-0.6,0.2c-2.5,0-5-1-6.8-2.8
		c-1.8-1.8-2.8-4.2-2.8-6.8c0,0,0.1-0.4,0.2-0.5l0.8-0.8c0.3-0.3,0.9-0.4,1.3-0.3l0.2,0.1c0.4,0.1,0.8,0.6,0.9,1l0.4,1.5
		c0.1,0.4,0,1-0.3,1.3l-0.5,0.5c0.5,1.9,2,3.5,4,4l0.5-0.5c0.3-0.3,0.9-0.4,1.3-0.3l1.5,0.4c0.4,0.1,0.8,0.5,1,0.9l0.1,0.2
		C670.3-1582.7,670.2-1582.1,669.9-1581.8z"/>
</g>
</svg>
