<?xml version="1.0" encoding="utf-8"?>
<!-- Generator: Adobe Illustrator 21.0.2, SVG Export Plug-In . SVG Version: 6.00 Build 0)  -->
<svg version="1.1" id="Layer_1" xmlns="http://www.w3.org/2000/svg" xmlns:xlink="http://www.w3.org/1999/xlink" x="0px" y="0px"
	 viewBox="0 0 20 30" style="enable-background:new 0 0 20 30;" xml:space="preserve">
<style type="text/css">
	.st0{fill:#FFFFFF;}
</style>
<path class="st0" d="M16,0H4C1.8,0,0,1.8,0,4v22c0,2.2,1.8,4,4,4h12c2.2,0,4-1.8,4-4V4C20,1.8,18.2,0,16,0z M10,18.5l-4.8-4.8
	l1.4-1.4l3.4,3.4l3.4-3.4l1.4,1.4L10,18.5z M10,12.5L5.2,7.7l1.4-1.4L10,9.7l3.4-3.4l1.4,1.4L10,12.5z"/>
</svg>
