<?xml version="1.0" encoding="utf-8"?>
<!-- Generator: Adobe Illustrator 21.0.2, SVG Export Plug-In . SVG Version: 6.00 Build 0)  -->
<svg version="1.1" id="Layer_1" xmlns="http://www.w3.org/2000/svg" xmlns:xlink="http://www.w3.org/1999/xlink" x="0px" y="0px"
	 viewBox="0 0 320 240" style="enable-background:new 0 0 320 240;" xml:space="preserve">
<style type="text/css">
	.st0{fill:#FFFFFF;}
</style>
<path class="st0" d="M1318-1534h-12c-2.2,0-4,1.8-4,4v22c0,2.2,1.8,4,4,4h12c2.2,0,4-1.8,4-4v-22C1322-1532.2,1320.2-1534,1318-1534
	z M1312-1515.5l-4.8-4.8l1.4-1.4l3.4,3.4l3.4-3.4l1.4,1.4L1312-1515.5z M1312-1521.5l-4.8-4.8l1.4-1.4l3.4,3.4l3.4-3.4l1.4,1.4
	L1312-1521.5z"/>
</svg>
